<?xml version="1.0" standalone="no"?>
<!DOCTYPE svg PUBLIC "-//W3C//DTD SVG 20010904//EN"
 "http://www.w3.org/TR/2001/REC-SVG-20010904/DTD/svg10.dtd">
<svg version="1.0" xmlns="http://www.w3.org/2000/svg"
 width="340.000000pt" height="340.000000pt" viewBox="0 0 340.000000 340.000000"
 preserveAspectRatio="xMidYMid meet">
<metadata>
Created by potrace 1.11, written by Peter Selinger 2001-2013
</metadata>
<g transform="translate(0.000000,340.000000) scale(0.100000,-0.100000)"
fill="#000000" stroke="none">
<path d="M1454 2030 c-96 -43 -114 -96 -114 -329 0 -97 5 -193 11 -214 6 -21
26 -56 45 -76 42 -48 100 -66 188 -59 114 10 174 73 183 194 l5 62 -66 -1 -66
-1 -1 -38 c-1 -21 -2 -42 -3 -48 -2 -16 -35 -50 -51 -51 -8 -1 -21 -2 -27 -3
-28 -4 -70 18 -79 41 -5 13 -9 101 -9 194 0 212 6 229 87 229 51 0 71 -18 79
-71 l7 -39 64 0 65 0 -5 43 c-9 85 -48 142 -117 170 -49 20 -149 19 -196 -3z"/>
<path d="M500 1700 l0 -340 35 -1 c19 0 64 0 100 0 36 0 101 0 145 0 l80 1 0
54 c0 34 -5 55 -12 58 -7 2 -59 3 -115 3 l-103 -2 0 89 c0 77 2 88 18 89 9 0
47 1 83 1 l67 1 -2 56 -1 56 -83 3 -82 3 0 77 0 78 115 -1 115 -1 0 58 0 58
-180 0 -180 0 0 -340z"/>
<path d="M885 1704 l0 -339 35 -5 c19 -3 49 -3 66 -2 l31 4 -1 125 c-1 68 2
129 5 135 3 5 33 11 65 12 32 2 78 8 100 14 149 42 173 279 36 359 -43 25 -55
27 -191 31 l-146 4 0 -338z m270 201 c32 -31 35 -101 6 -136 -16 -20 -28 -24
-82 -24 l-64 0 0 80 c-1 44 1 86 3 93 3 7 24 12 59 12 44 0 58 -5 78 -25z"/>
<path d="M1770 2028 c0 -7 7 -38 16 -68 8 -30 16 -62 18 -70 2 -8 27 -105 56
-215 28 -110 53 -207 55 -215 20 -93 24 -100 63 -101 48 -1 106 2 110 6 2 2 7
18 12 37 4 18 18 69 29 113 12 44 23 89 26 100 2 11 16 65 30 120 33 128 75
295 75 301 0 2 -28 4 -63 4 l-63 0 -17 -67 c-9 -38 -35 -147 -59 -243 -23 -96
-44 -168 -47 -160 -2 8 -30 116 -60 240 l-56 225 -62 3 c-47 2 -63 0 -63 -10z"/>
<path d="M2295 1703 l0 -338 46 -5 c92 -11 85 -40 85 343 l0 337 -65 0 -66 0
0 -337z"/>
<path d="M2464 1701 c0 -289 2 -341 14 -343 8 -2 38 -2 66 0 l51 4 -1 134 c-1
129 0 134 20 135 112 3 179 21 219 57 54 49 73 159 39 234 -41 92 -97 115
-283 117 l-125 2 0 -340z m265 212 c27 -22 38 -83 22 -122 -15 -36 -48 -51
-110 -51 l-47 0 0 95 0 95 57 0 c39 0 63 -5 78 -17z"/>
</g>
</svg>
